{"title":"Die Parallelstrasse (The Parallel Street) (1962)","uid":8224936,"size":1101649243,"categoryP":"video","categoryS":"movies","magnet":"?xt=urn:btih:33142f8fb7f8fca795c414f95bd4a3a5135e739e&amp;dn=Die+Parallelstrasse+%28The+Parallel+Street%29+%281962%29&amp;tr=udp%3A%2F%2Ftracker.openbittorrent.com%3A80&amp;tr=udp%3A%2F%2Fopen.demonii.com%3A1337&amp;tr=udp%3A%2F%2Ftracker.coppersurfer.tk%3A6969&amp;tr=udp%3A%2F%2Fexodus.desync.com%3A6969","seeders":1,"leechers":0,"uploader":"y-merej","files":2,"time":1362575839,"description":"Format                         : AVI\nFormat/Info                    : Audio Video Interleave\nFile size                      : 1.03 GiB\nDuration                       : 1h 22mn\nOverall bit rate               : 1 777 Kbps\n\nVideo\nID                             : 0\nFormat                         : MPEG-4 Visual\nFormat profile                 : Simple@L3\nFormat settings, BVOP          : No\nFormat settings, QPel          : No\nFormat settings, GMC           : No warppoints\nFormat settings, Matrix        : Default (H.263)\nCodec ID                       : XVID\nCodec ID/Hint                  : XviD\nDuration                       : 1h 22mn\nSource duration                : 1h 22mn\nBit rate                       : 1 499 Kbps\nWidth                          : 704 pixels\nHeight                         : 528 pixels\nDisplay aspect ratio           : 4:3\nFrame rate                     : 25.000 fps\nColor space                    : YUV\nChroma subsampling             : 4:2:0\nBit depth                      : 8 bits\nScan type                      : Progressive\nCompression mode               : Lossy\nBits/(Pixel*Frame)             : 0.161\nStream size                    : 887 MiB (84%)\nWriting library                : XviD 1.1.2 (UTC 2006-11-01)\n\nAudio #1\nID                             : 1\nFormat                         : MPEG Audio\nFormat version                 : Version 1\nFormat profile                 : Layer 3\nMode                           : Joint stereo\nMode extension                 : MS Stereo\nCodec ID                       : 55\nCodec ID/Hint                  : MP3\nDuration                       : 1h 22mn\nBit rate mode                  : Constant\nBit rate                       : 128 Kbps\nChannel(s)                     : 2 channels\nSampling rate                  : 48.0 KHz\nCompression mode               : Lossy\nStream size                    : 75.7 MiB (7%)\nAlignment                      : Split accross interleaves\nInterleave, duration           : 24 ms (0.60 video frame)","torrent":{"xt":"urn:btih:33142f8fb7f8fca795c414f95bd4a3a5135e739e","amp;dn":"Die+Parallelstrasse+%28The+Parallel+Street%29+%281962%29","amp;tr":["udp%3A%2F%2Ftracker.openbittorrent.com%3A80","udp%3A%2F%2Fopen.demonii.com%3A1337","udp%3A%2F%2Ftracker.coppersurfer.tk%3A6969","udp%3A%2F%2Fexodus.desync.com%3A6969"],"infoHash":"33142f8fb7f8fca795c414f95bd4a3a5135e739e","infoHashBuffer":{"type":"Buffer","data":[51,20,47,143,183,248,252,167,149,196,20,249,91,212,163,165,19,94,115,158]},"announce":[],"urlList":[]}}